<svg xmlns="http://www.w3.org/2000/svg" xmlns:xlink="http://www.w3.org/1999/xlink" width="500" zoomAndPan="magnify" viewBox="0 0 375 374.999991" height="500" preserveAspectRatio="xMidYMid meet" version="1.0"><defs><clipPath id="2496bca560"><path d="M 24.644531 19.074219 L 346.394531 19.074219 L 346.394531 351.324219 L 24.644531 351.324219 Z M 24.644531 19.074219 " clip-rule="nonzero"/></clipPath><clipPath id="bfd69d9239"><path d="M 24.644531 94.074219 L 24.644531 276.519531 C 24.644531 317.941406 58.222656 351.519531 99.644531 351.519531 L 271.699219 351.519531 C 313.121094 351.519531 346.699219 317.941406 346.699219 276.519531 L 346.699219 94.074219 C 346.699219 52.652344 313.121094 19.074219 271.699219 19.074219 L 99.644531 19.074219 C 58.222656 19.074219 24.644531 52.652344 24.644531 94.074219 Z M 24.644531 94.074219 " clip-rule="nonzero"/></clipPath><clipPath id="9d2b1ce580"><path d="M 24.644531 19.074219 L 346.394531 19.074219 L 346.394531 93 L 24.644531 93 Z M 24.644531 19.074219 " clip-rule="nonzero"/></clipPath><clipPath id="e2cac13af8"><path d="M 24.644531 94.074219 L 24.644531 276.519531 C 24.644531 317.941406 58.222656 351.519531 99.644531 351.519531 L 271.699219 351.519531 C 313.121094 351.519531 346.699219 317.941406 346.699219 276.519531 L 346.699219 94.074219 C 346.699219 52.652344 313.121094 19.074219 271.699219 19.074219 L 99.644531 19.074219 C 58.222656 19.074219 24.644531 52.652344 24.644531 94.074219 Z M 24.644531 94.074219 " clip-rule="nonzero"/></clipPath><clipPath id="6371865dcc"><path d="M 227 42 L 310 42 L 310 69 L 227 69 Z M 227 42 " clip-rule="nonzero"/></clipPath><clipPath id="522bedab66"><path d="M 24.644531 94.074219 L 24.644531 276.519531 C 24.644531 317.941406 58.222656 351.519531 99.644531 351.519531 L 271.699219 351.519531 C 313.121094 351.519531 346.699219 317.941406 346.699219 276.519531 L 346.699219 94.074219 C 346.699219 52.652344 313.121094 19.074219 271.699219 19.074219 L 99.644531 19.074219 C 58.222656 19.074219 24.644531 52.652344 24.644531 94.074219 Z M 24.644531 94.074219 " clip-rule="nonzero"/></clipPath><clipPath id="ef1a974e05"><path d="M 24.644531 19.074219 L 218 19.074219 L 218 93 L 24.644531 93 Z M 24.644531 19.074219 " clip-rule="nonzero"/></clipPath><clipPath id="778dda0397"><path d="M 24.644531 94.074219 L 24.644531 276.519531 C 24.644531 317.941406 58.222656 351.519531 99.644531 351.519531 L 271.699219 351.519531 C 313.121094 351.519531 346.699219 317.941406 346.699219 276.519531 L 346.699219 94.074219 C 346.699219 52.652344 313.121094 19.074219 271.699219 19.074219 L 99.644531 19.074219 C 58.222656 19.074219 24.644531 52.652344 24.644531 94.074219 Z M 24.644531 94.074219 " clip-rule="nonzero"/></clipPath><clipPath id="17e7fb360f"><path d="M 54 42 L 80 42 L 80 69 L 54 69 Z M 54 42 " clip-rule="nonzero"/></clipPath><clipPath id="95a727af5c"><path d="M 24.644531 94.074219 L 24.644531 276.519531 C 24.644531 317.941406 58.222656 351.519531 99.644531 351.519531 L 271.699219 351.519531 C 313.121094 351.519531 346.699219 317.941406 346.699219 276.519531 L 346.699219 94.074219 C 346.699219 52.652344 313.121094 19.074219 271.699219 19.074219 L 99.644531 19.074219 C 58.222656 19.074219 24.644531 52.652344 24.644531 94.074219 Z M 24.644531 94.074219 " clip-rule="nonzero"/></clipPath><clipPath id="a993c60734"><path d="M 98 42 L 124 42 L 124 69 L 98 69 Z M 98 42 " clip-rule="nonzero"/></clipPath><clipPath id="9146a2ac56"><path d="M 24.644531 94.074219 L 24.644531 276.519531 C 24.644531 317.941406 58.222656 351.519531 99.644531 351.519531 L 271.699219 351.519531 C 313.121094 351.519531 346.699219 317.941406 346.699219 276.519531 L 346.699219 94.074219 C 346.699219 52.652344 313.121094 19.074219 271.699219 19.074219 L 99.644531 19.074219 C 58.222656 19.074219 24.644531 52.652344 24.644531 94.074219 Z M 24.644531 94.074219 " clip-rule="nonzero"/></clipPath><clipPath id="5f70399be0"><path d="M 142 42 L 168 42 L 168 69 L 142 69 Z M 142 42 " clip-rule="nonzero"/></clipPath><clipPath id="ae6fbd5e18"><path d="M 24.644531 94.074219 L 24.644531 276.519531 C 24.644531 317.941406 58.222656 351.519531 99.644531 351.519531 L 271.699219 351.519531 C 313.121094 351.519531 346.699219 317.941406 346.699219 276.519531 L 346.699219 94.074219 C 346.699219 52.652344 313.121094 19.074219 271.699219 19.074219 L 99.644531 19.074219 C 58.222656 19.074219 24.644531 52.652344 24.644531 94.074219 Z M 24.644531 94.074219 " clip-rule="nonzero"/></clipPath><clipPath id="c6f4024374"><path d="M 24.644531 92 L 346.394531 92 L 346.394531 103 L 24.644531 103 Z M 24.644531 92 " clip-rule="nonzero"/></clipPath><clipPath id="4176b7b9c8"><path d="M 24.644531 94.074219 L 24.644531 276.519531 C 24.644531 317.941406 58.222656 351.519531 99.644531 351.519531 L 271.699219 351.519531 C 313.121094 351.519531 346.699219 317.941406 346.699219 276.519531 L 346.699219 94.074219 C 346.699219 52.652344 313.121094 19.074219 271.699219 19.074219 L 99.644531 19.074219 C 58.222656 19.074219 24.644531 52.652344 24.644531 94.074219 Z M 24.644531 94.074219 " clip-rule="nonzero"/></clipPath><clipPath id="7ed76284da"><path d="M 169 271 L 197 271 L 197 324 L 169 324 Z M 169 271 " clip-rule="nonzero"/></clipPath><clipPath id="4815bb8de5"><path d="M 24.644531 94.074219 L 24.644531 276.519531 C 24.644531 317.941406 58.222656 351.519531 99.644531 351.519531 L 271.699219 351.519531 C 313.121094 351.519531 346.699219 317.941406 346.699219 276.519531 L 346.699219 94.074219 C 346.699219 52.652344 313.121094 19.074219 271.699219 19.074219 L 99.644531 19.074219 C 58.222656 19.074219 24.644531 52.652344 24.644531 94.074219 Z M 24.644531 94.074219 " clip-rule="nonzero"/></clipPath><clipPath id="f75e2e00da"><path d="M 208 224 L 236 224 L 236 324 L 208 324 Z M 208 224 " clip-rule="nonzero"/></clipPath><clipPath id="2fa34809a7"><path d="M 24.644531 94.074219 L 24.644531 276.519531 C 24.644531 317.941406 58.222656 351.519531 99.644531 351.519531 L 271.699219 351.519531 C 313.121094 351.519531 346.699219 317.941406 346.699219 276.519531 L 346.699219 94.074219 C 346.699219 52.652344 313.121094 19.074219 271.699219 19.074219 L 99.644531 19.074219 C 58.222656 19.074219 24.644531 52.652344 24.644531 94.074219 Z M 24.644531 94.074219 " clip-rule="nonzero"/></clipPath><clipPath id="cf5a8a2092"><path d="M 247 199 L 274 199 L 274 324 L 247 324 Z M 247 199 " clip-rule="nonzero"/></clipPath><clipPath id="c31c1cff22"><path d="M 24.644531 94.074219 L 24.644531 276.519531 C 24.644531 317.941406 58.222656 351.519531 99.644531 351.519531 L 271.699219 351.519531 C 313.121094 351.519531 346.699219 317.941406 346.699219 276.519531 L 346.699219 94.074219 C 346.699219 52.652344 313.121094 19.074219 271.699219 19.074219 L 99.644531 19.074219 C 58.222656 19.074219 24.644531 52.652344 24.644531 94.074219 Z M 24.644531 94.074219 " clip-rule="nonzero"/></clipPath><clipPath id="431b5c6e97"><path d="M 286 235 L 314 235 L 314 324 L 286 324 Z M 286 235 " clip-rule="nonzero"/></clipPath><clipPath id="f5281718e8"><path d="M 24.644531 94.074219 L 24.644531 276.519531 C 24.644531 317.941406 58.222656 351.519531 99.644531 351.519531 L 271.699219 351.519531 C 313.121094 351.519531 346.699219 317.941406 346.699219 276.519531 L 346.699219 94.074219 C 346.699219 52.652344 313.121094 19.074219 271.699219 19.074219 L 99.644531 19.074219 C 58.222656 19.074219 24.644531 52.652344 24.644531 94.074219 Z M 24.644531 94.074219 " clip-rule="nonzero"/></clipPath><clipPath id="0265f6c8d7"><path d="M 204 128 L 307 128 L 307 136 L 204 136 Z M 204 128 " clip-rule="nonzero"/></clipPath><clipPath id="ddc4b23ec5"><path d="M 24.644531 94.074219 L 24.644531 276.519531 C 24.644531 317.941406 58.222656 351.519531 99.644531 351.519531 L 271.699219 351.519531 C 313.121094 351.519531 346.699219 317.941406 346.699219 276.519531 L 346.699219 94.074219 C 346.699219 52.652344 313.121094 19.074219 271.699219 19.074219 L 99.644531 19.074219 C 58.222656 19.074219 24.644531 52.652344 24.644531 94.074219 Z M 24.644531 94.074219 " clip-rule="nonzero"/></clipPath><clipPath id="c200c8071b"><path d="M 252 160 L 307 160 L 307 167 L 252 167 Z M 252 160 " clip-rule="nonzero"/></clipPath><clipPath id="aed99b3ce3"><path d="M 24.644531 94.074219 L 24.644531 276.519531 C 24.644531 317.941406 58.222656 351.519531 99.644531 351.519531 L 271.699219 351.519531 C 313.121094 351.519531 346.699219 317.941406 346.699219 276.519531 L 346.699219 94.074219 C 346.699219 52.652344 313.121094 19.074219 271.699219 19.074219 L 99.644531 19.074219 C 58.222656 19.074219 24.644531 52.652344 24.644531 94.074219 Z M 24.644531 94.074219 " clip-rule="nonzero"/></clipPath><clipPath id="be68bf116a"><path d="M 57 269 L 147 269 L 147 276 L 57 276 Z M 57 269 " clip-rule="nonzero"/></clipPath><clipPath id="53263c276b"><path d="M 24.644531 94.074219 L 24.644531 276.519531 C 24.644531 317.941406 58.222656 351.519531 99.644531 351.519531 L 271.699219 351.519531 C 313.121094 351.519531 346.699219 317.941406 346.699219 276.519531 L 346.699219 94.074219 C 346.699219 52.652344 313.121094 19.074219 271.699219 19.074219 L 99.644531 19.074219 C 58.222656 19.074219 24.644531 52.652344 24.644531 94.074219 Z M 24.644531 94.074219 " clip-rule="nonzero"/></clipPath><clipPath id="8e837c6e4a"><path d="M 57 300 L 106 300 L 106 307 L 57 307 Z M 57 300 " clip-rule="nonzero"/></clipPath><clipPath id="6f0d7afa3e"><path d="M 24.644531 94.074219 L 24.644531 276.519531 C 24.644531 317.941406 58.222656 351.519531 99.644531 351.519531 L 271.699219 351.519531 C 313.121094 351.519531 346.699219 317.941406 346.699219 276.519531 L 346.699219 94.074219 C 346.699219 52.652344 313.121094 19.074219 271.699219 19.074219 L 99.644531 19.074219 C 58.222656 19.074219 24.644531 52.652344 24.644531 94.074219 Z M 24.644531 94.074219 " clip-rule="nonzero"/></clipPath><clipPath id="73ba50e642"><path d="M 53 118 L 109 118 L 109 215 L 53 215 Z M 53 118 " clip-rule="nonzero"/></clipPath><clipPath id="fed76df420"><path d="M 24.644531 94.074219 L 24.644531 276.519531 C 24.644531 317.941406 58.222656 351.519531 99.644531 351.519531 L 271.699219 351.519531 C 313.121094 351.519531 346.699219 317.941406 346.699219 276.519531 L 346.699219 94.074219 C 346.699219 52.652344 313.121094 19.074219 271.699219 19.074219 L 99.644531 19.074219 C 58.222656 19.074219 24.644531 52.652344 24.644531 94.074219 Z M 24.644531 94.074219 " clip-rule="nonzero"/></clipPath><clipPath id="531fe23c8d"><path d="M 104 118 L 164 118 L 164 174 L 104 174 Z M 104 118 " clip-rule="nonzero"/></clipPath><clipPath id="018801cc8a"><path d="M 24.644531 94.074219 L 24.644531 276.519531 C 24.644531 317.941406 58.222656 351.519531 99.644531 351.519531 L 271.699219 351.519531 C 313.121094 351.519531 346.699219 317.941406 346.699219 276.519531 L 346.699219 94.074219 C 346.699219 52.652344 313.121094 19.074219 271.699219 19.074219 L 99.644531 19.074219 C 58.222656 19.074219 24.644531 52.652344 24.644531 94.074219 Z M 24.644531 94.074219 " clip-rule="nonzero"/></clipPath><clipPath id="6018dd56ab"><path d="M 72 173 L 164 173 L 164 229 L 72 229 Z M 72 173 " clip-rule="nonzero"/></clipPath><clipPath id="cd805bb24c"><path d="M 24.644531 94.074219 L 24.644531 276.519531 C 24.644531 317.941406 58.222656 351.519531 99.644531 351.519531 L 271.699219 351.519531 C 313.121094 351.519531 346.699219 317.941406 346.699219 276.519531 L 346.699219 94.074219 C 346.699219 52.652344 313.121094 19.074219 271.699219 19.074219 L 99.644531 19.074219 C 58.222656 19.074219 24.644531 52.652344 24.644531 94.074219 Z M 24.644531 94.074219 " clip-rule="nonzero"/></clipPath></defs><g clip-path="url(#2496bca560)"><g clip-path="url(#bfd69d9239)"><path fill="#e6f7fe" d="M 41.179688 19.125 L 329.824219 19.125 C 330.363281 19.125 330.90625 19.152344 331.445312 19.207031 C 331.984375 19.261719 332.519531 19.34375 333.046875 19.453125 C 333.578125 19.558594 334.105469 19.695312 334.621094 19.855469 C 335.140625 20.015625 335.648438 20.203125 336.148438 20.414062 C 336.652344 20.628906 337.140625 20.863281 337.617188 21.125 C 338.09375 21.386719 338.558594 21.671875 339.007812 21.980469 C 339.457031 22.289062 339.894531 22.617188 340.3125 22.96875 C 340.730469 23.320312 341.132812 23.691406 341.515625 24.085938 C 341.898438 24.476562 342.261719 24.886719 342.605469 25.316406 C 342.945312 25.746094 343.269531 26.1875 343.570312 26.648438 C 343.871094 27.109375 344.148438 27.585938 344.402344 28.074219 C 344.660156 28.5625 344.890625 29.066406 345.097656 29.578125 C 345.304688 30.089844 345.488281 30.609375 345.644531 31.140625 C 345.800781 31.671875 345.933594 32.207031 346.039062 32.753906 C 346.144531 33.296875 346.222656 33.84375 346.277344 34.394531 C 346.328125 34.949219 346.355469 35.5 346.355469 36.054688 L 346.355469 334.34375 C 346.355469 334.898438 346.328125 335.453125 346.277344 336.003906 C 346.222656 336.554688 346.144531 337.105469 346.039062 337.648438 C 345.933594 338.191406 345.800781 338.730469 345.644531 339.257812 C 345.488281 339.789062 345.304688 340.3125 345.097656 340.824219 C 344.890625 341.335938 344.660156 341.835938 344.402344 342.324219 C 344.148438 342.8125 343.871094 343.289062 343.570312 343.75 C 343.269531 344.210938 342.945312 344.65625 342.605469 345.085938 C 342.261719 345.511719 341.898438 345.921875 341.515625 346.316406 C 341.132812 346.707031 340.730469 347.078125 340.3125 347.429688 C 339.894531 347.78125 339.457031 348.113281 339.007812 348.421875 C 338.558594 348.730469 338.09375 349.011719 337.617188 349.273438 C 337.140625 349.535156 336.652344 349.773438 336.148438 349.984375 C 335.648438 350.195312 335.140625 350.382812 334.621094 350.542969 C 334.105469 350.707031 333.578125 350.839844 333.046875 350.949219 C 332.519531 351.054688 331.984375 351.136719 331.445312 351.191406 C 330.90625 351.246094 330.363281 351.273438 329.824219 351.273438 L 41.179688 351.273438 C 40.636719 351.273438 40.097656 351.246094 39.558594 351.191406 C 39.019531 351.136719 38.484375 351.054688 37.953125 350.949219 C 37.421875 350.839844 36.898438 350.707031 36.378906 350.542969 C 35.859375 350.382812 35.351562 350.195312 34.851562 349.984375 C 34.351562 349.773438 33.863281 349.535156 33.382812 349.273438 C 32.90625 349.011719 32.441406 348.730469 31.992188 348.421875 C 31.542969 348.113281 31.109375 347.78125 30.691406 347.429688 C 30.269531 347.078125 29.871094 346.707031 29.488281 346.316406 C 29.105469 345.921875 28.742188 345.511719 28.398438 345.085938 C 28.054688 344.65625 27.730469 344.210938 27.429688 343.75 C 27.128906 343.289062 26.851562 342.8125 26.597656 342.324219 C 26.34375 341.835938 26.109375 341.335938 25.902344 340.824219 C 25.695312 340.3125 25.515625 339.789062 25.355469 339.257812 C 25.199219 338.730469 25.070312 338.191406 24.964844 337.648438 C 24.855469 337.105469 24.777344 336.554688 24.726562 336.003906 C 24.671875 335.453125 24.644531 334.898438 24.644531 334.34375 L 24.644531 36.054688 C 24.644531 35.5 24.671875 34.949219 24.726562 34.394531 C 24.777344 33.84375 24.855469 33.296875 24.964844 32.753906 C 25.070312 32.207031 25.199219 31.671875 25.355469 31.140625 C 25.515625 30.609375 25.695312 30.089844 25.902344 29.578125 C 26.109375 29.066406 26.34375 28.5625 26.597656 28.074219 C 26.851562 27.585938 27.128906 27.109375 27.429688 26.648438 C 27.730469 26.1875 28.054688 25.746094 28.398438 25.316406 C 28.742188 24.886719 29.105469 24.476562 29.488281 24.085938 C 29.871094 23.691406 30.269531 23.320312 30.691406 22.96875 C 31.109375 22.617188 31.542969 22.289062 31.992188 21.980469 C 32.441406 21.671875 32.90625 21.386719 33.382812 21.125 C 33.863281 20.863281 34.351562 20.628906 34.851562 20.414062 C 35.351562 20.203125 35.859375 20.015625 36.378906 19.855469 C 36.898438 19.695312 37.421875 19.558594 37.953125 19.453125 C 38.484375 19.34375 39.019531 19.261719 39.558594 19.207031 C 40.097656 19.152344 40.636719 19.125 41.179688 19.125 Z M 41.179688 19.125 " fill-opacity="1" fill-rule="evenodd"/></g></g><g clip-path="url(#9d2b1ce580)"><g clip-path="url(#e2cac13af8)"><path fill="#615df9" d="M 24.644531 36.054688 L 24.644531 92.09375 L 346.355469 92.09375 L 346.355469 36.054688 C 346.355469 26.714844 338.964844 19.125 329.824219 19.125 L 41.371094 19.125 C 32.230469 19.125 24.644531 26.714844 24.644531 36.054688 Z M 24.644531 36.054688 " fill-opacity="1" fill-rule="evenodd"/></g></g><g clip-path="url(#6371865dcc)"><g clip-path="url(#522bedab66)"><path fill="#a8a8ff" d="M 268.75 42.671875 L 268.945312 42.671875 C 270.289062 42.671875 271.628906 42.691406 272.964844 42.734375 C 274.304688 42.773438 275.632812 42.835938 276.949219 42.917969 C 278.269531 43 279.570312 43.101562 280.855469 43.222656 C 282.144531 43.347656 283.40625 43.488281 284.648438 43.648438 C 285.890625 43.808594 287.105469 43.988281 288.289062 44.1875 C 289.476562 44.386719 290.625 44.601562 291.746094 44.835938 C 292.863281 45.070312 293.941406 45.320312 294.980469 45.585938 C 296.019531 45.851562 297.011719 46.136719 297.964844 46.433594 C 298.914062 46.730469 299.816406 47.039062 300.667969 47.367188 C 301.519531 47.691406 302.320312 48.027344 303.066406 48.378906 C 303.8125 48.726562 304.503906 49.089844 305.136719 49.460938 C 305.773438 49.832031 306.34375 50.210938 306.859375 50.597656 C 307.375 50.988281 307.828125 51.382812 308.214844 51.785156 C 308.605469 52.1875 308.933594 52.59375 309.195312 53.007812 C 309.457031 53.421875 309.65625 53.835938 309.785156 54.253906 C 309.917969 54.671875 309.984375 55.09375 309.984375 55.511719 C 309.984375 55.933594 309.917969 56.351562 309.785156 56.773438 C 309.65625 57.191406 309.457031 57.605469 309.195312 58.019531 C 308.933594 58.429688 308.605469 58.839844 308.214844 59.242188 C 307.828125 59.644531 307.375 60.039062 306.859375 60.425781 C 306.34375 60.816406 305.773438 61.195312 305.136719 61.566406 C 304.503906 61.9375 303.8125 62.296875 303.066406 62.648438 C 302.320312 62.996094 301.519531 63.335938 300.667969 63.660156 C 299.816406 63.984375 298.914062 64.296875 297.964844 64.59375 C 297.011719 64.890625 296.019531 65.171875 294.980469 65.441406 C 293.941406 65.707031 292.863281 65.957031 291.746094 66.191406 C 290.625 66.425781 289.476562 66.640625 288.289062 66.839844 C 287.105469 67.039062 285.890625 67.214844 284.648438 67.378906 C 283.40625 67.539062 282.144531 67.679688 280.855469 67.800781 C 279.570312 67.925781 278.269531 68.027344 276.949219 68.109375 C 275.632812 68.191406 274.304688 68.253906 272.964844 68.292969 C 271.628906 68.335938 270.289062 68.355469 268.945312 68.355469 L 268.75 68.355469 C 267.40625 68.355469 266.0625 68.335938 264.726562 68.292969 C 263.386719 68.253906 262.058594 68.191406 260.742188 68.109375 C 259.425781 68.027344 258.121094 67.925781 256.835938 67.800781 C 255.550781 67.679688 254.285156 67.539062 253.042969 67.378906 C 251.800781 67.214844 250.589844 67.039062 249.402344 66.839844 C 248.21875 66.640625 247.066406 66.425781 245.949219 66.191406 C 244.832031 65.957031 243.753906 65.707031 242.714844 65.441406 C 241.675781 65.171875 240.679688 64.890625 239.730469 64.59375 C 238.777344 64.296875 237.875 63.984375 237.023438 63.660156 C 236.171875 63.335938 235.371094 62.996094 234.625 62.648438 C 233.878906 62.296875 233.1875 61.9375 232.554688 61.566406 C 231.921875 61.195312 231.347656 60.816406 230.832031 60.425781 C 230.316406 60.039062 229.867188 59.644531 229.476562 59.242188 C 229.085938 58.839844 228.757812 58.429688 228.496094 58.019531 C 228.234375 57.605469 228.039062 57.191406 227.90625 56.773438 C 227.773438 56.351562 227.707031 55.933594 227.707031 55.511719 C 227.707031 55.09375 227.773438 54.671875 227.90625 54.253906 C 228.039062 53.835938 228.234375 53.421875 228.496094 53.007812 C 228.757812 52.59375 229.085938 52.1875 229.476562 51.785156 C 229.867188 51.382812 230.316406 50.988281 230.832031 50.597656 C 231.347656 50.210938 231.921875 49.832031 232.554688 49.460938 C 233.1875 49.089844 233.878906 48.726562 234.625 48.378906 C 235.371094 48.027344 236.171875 47.691406 237.023438 47.367188 C 237.875 47.039062 238.777344 46.730469 239.730469 46.433594 C 240.679688 46.136719 241.675781 45.851562 242.714844 45.585938 C 243.753906 45.320312 244.832031 45.070312 245.949219 44.835938 C 247.066406 44.601562 248.21875 44.386719 249.402344 44.1875 C 250.589844 43.988281 251.800781 43.808594 253.042969 43.648438 C 254.285156 43.488281 255.550781 43.347656 256.835938 43.222656 C 258.121094 43.101562 259.425781 43 260.742188 42.917969 C 262.058594 42.835938 263.386719 42.773438 264.726562 42.734375 C 266.0625 42.691406 267.40625 42.671875 268.75 42.671875 Z M 268.75 42.671875 " fill-opacity="1" fill-rule="evenodd"/></g></g><g clip-path="url(#ef1a974e05)"><g clip-path="url(#778dda0397)"><path fill="#3342ae" d="M 217.59375 92.09375 L 176.554688 19.125 L 41.371094 19.125 C 32.230469 19.125 24.644531 26.714844 24.644531 36.054688 L 24.644531 92.09375 Z M 217.59375 92.09375 " fill-opacity="1" fill-rule="evenodd"/></g></g><g clip-path="url(#17e7fb360f)"><g clip-path="url(#95a727af5c)"><path fill="#f948b4" d="M 57.90625 42.671875 L 75.605469 42.671875 C 76.09375 42.671875 76.566406 42.765625 77.019531 42.953125 C 77.472656 43.140625 77.871094 43.40625 78.21875 43.753906 C 78.566406 44.101562 78.832031 44.5 79.019531 44.953125 C 79.207031 45.40625 79.300781 45.878906 79.300781 46.367188 L 79.300781 64.660156 C 79.300781 65.148438 79.207031 65.621094 79.019531 66.074219 C 78.832031 66.527344 78.566406 66.925781 78.21875 67.273438 C 77.871094 67.617188 77.472656 67.886719 77.019531 68.074219 C 76.566406 68.261719 76.09375 68.355469 75.605469 68.355469 L 57.90625 68.355469 C 57.414062 68.355469 56.945312 68.261719 56.492188 68.074219 C 56.039062 67.886719 55.640625 67.617188 55.292969 67.273438 C 54.945312 66.925781 54.679688 66.527344 54.492188 66.074219 C 54.304688 65.621094 54.210938 65.148438 54.210938 64.660156 L 54.210938 46.367188 C 54.210938 45.878906 54.304688 45.40625 54.492188 44.953125 C 54.679688 44.5 54.945312 44.101562 55.292969 43.753906 C 55.640625 43.40625 56.039062 43.140625 56.492188 42.953125 C 56.945312 42.765625 57.414062 42.671875 57.90625 42.671875 Z M 57.90625 42.671875 " fill-opacity="1" fill-rule="evenodd"/></g></g><g clip-path="url(#a993c60734)"><g clip-path="url(#9146a2ac56)"><path fill="#fecd0a" d="M 101.863281 42.671875 L 119.5625 42.671875 C 120.054688 42.671875 120.523438 42.765625 120.976562 42.953125 C 121.429688 43.140625 121.832031 43.40625 122.175781 43.753906 C 122.523438 44.101562 122.789062 44.5 122.976562 44.953125 C 123.164062 45.40625 123.257812 45.878906 123.257812 46.367188 L 123.257812 64.660156 C 123.257812 65.148438 123.164062 65.621094 122.976562 66.074219 C 122.789062 66.527344 122.523438 66.925781 122.175781 67.273438 C 121.832031 67.617188 121.429688 67.886719 120.976562 68.074219 C 120.523438 68.261719 120.054688 68.355469 119.5625 68.355469 L 101.863281 68.355469 C 101.375 68.355469 100.902344 68.261719 100.449219 68.074219 C 99.996094 67.886719 99.597656 67.617188 99.25 67.273438 C 98.902344 66.925781 98.636719 66.527344 98.449219 66.074219 C 98.261719 65.621094 98.167969 65.148438 98.167969 64.660156 L 98.167969 46.367188 C 98.167969 45.878906 98.261719 45.40625 98.449219 44.953125 C 98.636719 44.5 98.902344 44.101562 99.25 43.753906 C 99.597656 43.40625 99.996094 43.140625 100.449219 42.953125 C 100.902344 42.765625 101.375 42.671875 101.863281 42.671875 Z M 101.863281 42.671875 " fill-opacity="1" fill-rule="evenodd"/></g></g><g clip-path="url(#5f70399be0)"><g clip-path="url(#ae6fbd5e18)"><path fill="#39df74" d="M 146.015625 42.671875 L 163.714844 42.671875 C 164.207031 42.671875 164.675781 42.765625 165.128906 42.953125 C 165.582031 43.140625 165.984375 43.40625 166.328125 43.753906 C 166.675781 44.101562 166.941406 44.5 167.128906 44.953125 C 167.316406 45.40625 167.410156 45.878906 167.410156 46.367188 L 167.410156 64.660156 C 167.410156 65.148438 167.316406 65.621094 167.128906 66.074219 C 166.941406 66.527344 166.675781 66.925781 166.328125 67.273438 C 165.984375 67.617188 165.582031 67.886719 165.128906 68.074219 C 164.675781 68.261719 164.207031 68.355469 163.714844 68.355469 L 146.015625 68.355469 C 145.527344 68.355469 145.054688 68.261719 144.601562 68.074219 C 144.148438 67.886719 143.75 67.617188 143.402344 67.273438 C 143.054688 66.925781 142.789062 66.527344 142.601562 66.074219 C 142.414062 65.621094 142.320312 65.148438 142.320312 64.660156 L 142.320312 46.367188 C 142.320312 45.878906 142.414062 45.40625 142.601562 44.953125 C 142.789062 44.5 143.054688 44.101562 143.402344 43.753906 C 143.75 43.40625 144.148438 43.140625 144.601562 42.953125 C 145.054688 42.765625 145.527344 42.671875 146.015625 42.671875 Z M 146.015625 42.671875 " fill-opacity="1" fill-rule="evenodd"/></g></g><g clip-path="url(#c6f4024374)"><g clip-path="url(#4176b7b9c8)"><path fill="#cfdefe" d="M 24.644531 92.09375 L 346.390625 92.09375 L 346.390625 102.402344 L 24.644531 102.402344 Z M 24.644531 92.09375 " fill-opacity="1" fill-rule="evenodd"/></g></g><g clip-path="url(#7ed76284da)"><g clip-path="url(#4815bb8de5)"><path fill="#ffdd40" d="M 169.164062 271.300781 L 196.003906 271.300781 L 196.003906 323.253906 L 169.164062 323.253906 Z M 169.164062 271.300781 " fill-opacity="1" fill-rule="evenodd"/></g></g><g clip-path="url(#f75e2e00da)"><g clip-path="url(#2fa34809a7)"><path fill="#4fabf7" d="M 208.257812 224.019531 L 235.097656 224.019531 L 235.097656 323.253906 L 208.257812 323.253906 Z M 208.257812 224.019531 " fill-opacity="1" fill-rule="evenodd"/></g></g><g clip-path="url(#cf5a8a2092)"><g clip-path="url(#c31c1cff22)"><path fill="#e80054" d="M 247.160156 199.695312 L 274 199.695312 L 274 323.253906 L 247.160156 323.253906 Z M 247.160156 199.695312 " fill-opacity="1" fill-rule="evenodd"/></g></g><g clip-path="url(#431b5c6e97)"><g clip-path="url(#f5281718e8)"><path fill="#ffb334" d="M 286.253906 235.5 L 313.097656 235.5 L 313.097656 323.253906 L 286.253906 323.253906 Z M 286.253906 235.5 " fill-opacity="1" fill-rule="evenodd"/></g></g><g clip-path="url(#0265f6c8d7)"><g clip-path="url(#ddc4b23ec5)"><path fill="#1c2e7a" d="M 207.675781 135.289062 C 205.921875 135.289062 204.5625 133.929688 204.5625 132.175781 C 204.5625 130.425781 205.921875 128.871094 207.675781 128.871094 L 303.566406 128.871094 C 305.511719 128.871094 306.871094 130.425781 306.871094 132.175781 C 306.871094 133.929688 305.511719 135.289062 303.566406 135.289062 Z M 207.675781 135.289062 " fill-opacity="1" fill-rule="nonzero"/></g></g><g clip-path="url(#c200c8071b)"><g clip-path="url(#aed99b3ce3)"><path fill="#1c2e7a" d="M 255.71875 166.421875 C 253.964844 166.421875 252.410156 165.0625 252.410156 163.117188 C 252.410156 161.363281 253.964844 160.003906 255.71875 160.003906 L 303.566406 160.003906 C 305.511719 160.003906 306.871094 161.363281 306.871094 163.117188 C 306.871094 165.0625 305.511719 166.421875 303.566406 166.421875 Z M 255.71875 166.421875 " fill-opacity="1" fill-rule="nonzero"/></g></g><g clip-path="url(#be68bf116a)"><g clip-path="url(#53263c276b)"><path fill="#1c2e7a" d="M 143.488281 269.355469 C 145.433594 269.355469 146.792969 270.914062 146.792969 272.664062 C 146.792969 274.414062 145.433594 275.972656 143.488281 275.972656 L 61.210938 275.972656 C 59.460938 275.972656 57.90625 274.414062 57.90625 272.664062 C 57.90625 270.914062 59.460938 269.355469 61.210938 269.355469 Z M 143.488281 269.355469 " fill-opacity="1" fill-rule="nonzero"/></g></g><g clip-path="url(#8e837c6e4a)"><g clip-path="url(#6f0d7afa3e)"><path fill="#1c2e7a" d="M 102.445312 300.488281 C 104.199219 300.488281 105.558594 302.046875 105.558594 303.796875 C 105.558594 305.546875 104.199219 306.910156 102.445312 306.910156 L 61.210938 306.910156 C 59.460938 306.910156 57.90625 305.546875 57.90625 303.796875 C 57.90625 302.046875 59.460938 300.488281 61.210938 300.488281 Z M 102.445312 300.488281 " fill-opacity="1" fill-rule="nonzero"/></g></g><g clip-path="url(#73ba50e642)"><g clip-path="url(#fed76df420)"><path fill="#e80054" d="M 72.882812 214.875 C 61.210938 204.949219 53.820312 189.96875 53.820312 173.429688 C 53.820312 144.242188 76.382812 120.503906 104.976562 118.75 L 108.476562 173.429688 Z M 72.882812 214.875 " fill-opacity="1" fill-rule="evenodd"/></g></g><g clip-path="url(#531fe23c8d)"><g clip-path="url(#018801cc8a)"><path fill="#4fabf7" d="M 104.976562 118.75 L 108.476562 173.429688 L 163.132812 173.429688 C 163.132812 143.074219 138.625 118.558594 108.476562 118.558594 C 107.308594 118.558594 106.144531 118.75 104.976562 118.75 Z M 104.976562 118.75 " fill-opacity="1" fill-rule="evenodd"/></g></g><g clip-path="url(#6018dd56ab)"><g clip-path="url(#cd805bb24c)"><path fill="#ffdd40" d="M 108.476562 173.429688 L 72.882812 214.875 C 82.414062 223.046875 94.863281 228.105469 108.476562 228.105469 C 138.625 228.105469 163.132812 203.589844 163.132812 173.429688 Z M 108.476562 173.429688 " fill-opacity="1" fill-rule="evenodd"/></g></g></svg>