<svg xmlns="http://www.w3.org/2000/svg" xmlns:xlink="http://www.w3.org/1999/xlink" width="500" zoomAndPan="magnify" viewBox="0 0 375 374.999991" height="500" preserveAspectRatio="xMidYMid meet" version="1.0"><rect x="-37.5" width="450" fill="#ffffff" y="-37.499999" height="449.999989" fill-opacity="1"/><rect x="-37.5" width="450" fill="#ffffff" y="-37.499999" height="449.999989" fill-opacity="1"/><path fill="#e6f7fe" d="M 19.578125 -12.304688 L 361.375 -12.304688 C 362.019531 -12.304688 362.65625 -12.273438 363.296875 -12.210938 C 363.933594 -12.144531 364.566406 -12.046875 365.195312 -11.921875 C 365.824219 -11.792969 366.445312 -11.632812 367.058594 -11.441406 C 367.671875 -11.25 368.277344 -11.03125 368.867188 -10.777344 C 369.460938 -10.527344 370.039062 -10.246094 370.605469 -9.9375 C 371.171875 -9.628906 371.71875 -9.289062 372.253906 -8.925781 C 372.785156 -8.558594 373.300781 -8.167969 373.796875 -7.753906 C 374.292969 -7.335938 374.765625 -6.894531 375.21875 -6.429688 C 375.671875 -5.964844 376.101562 -5.480469 376.511719 -4.972656 C 376.917969 -4.464844 377.296875 -3.9375 377.65625 -3.390625 C 378.011719 -2.84375 378.339844 -2.28125 378.640625 -1.703125 C 378.945312 -1.121094 379.21875 -0.527344 379.464844 0.078125 C 379.710938 0.683594 379.925781 1.304688 380.109375 1.933594 C 380.296875 2.5625 380.453125 3.199219 380.578125 3.839844 C 380.703125 4.484375 380.796875 5.136719 380.859375 5.789062 C 380.921875 6.441406 380.953125 7.097656 380.953125 7.753906 L 380.953125 361.253906 C 380.953125 361.910156 380.921875 362.566406 380.859375 363.222656 C 380.796875 363.875 380.703125 364.523438 380.578125 365.167969 C 380.453125 365.8125 380.296875 366.449219 380.109375 367.078125 C 379.925781 367.707031 379.710938 368.324219 379.464844 368.933594 C 379.21875 369.539062 378.945312 370.132812 378.640625 370.710938 C 378.339844 371.289062 378.011719 371.855469 377.65625 372.398438 C 377.296875 372.945312 376.917969 373.472656 376.511719 373.980469 C 376.101562 374.488281 375.671875 374.976562 375.21875 375.441406 C 374.765625 375.90625 374.292969 376.34375 373.796875 376.761719 C 373.300781 377.179688 372.785156 377.570312 372.253906 377.933594 C 371.71875 378.300781 371.171875 378.636719 370.605469 378.945312 C 370.039062 379.257812 369.460938 379.539062 368.867188 379.789062 C 368.277344 380.039062 367.671875 380.261719 367.058594 380.453125 C 366.445312 380.644531 365.824219 380.800781 365.195312 380.929688 C 364.566406 381.058594 363.933594 381.15625 363.296875 381.21875 C 362.65625 381.285156 362.019531 381.316406 361.375 381.316406 L 19.578125 381.316406 C 18.9375 381.316406 18.296875 381.285156 17.660156 381.21875 C 17.019531 381.15625 16.386719 381.058594 15.757812 380.929688 C 15.128906 380.800781 14.507812 380.644531 13.894531 380.453125 C 13.28125 380.261719 12.679688 380.039062 12.085938 379.789062 C 11.492188 379.539062 10.914062 379.257812 10.347656 378.945312 C 9.785156 378.636719 9.234375 378.300781 8.699219 377.933594 C 8.167969 377.570312 7.652344 377.179688 7.15625 376.761719 C 6.660156 376.34375 6.1875 375.90625 5.734375 375.441406 C 5.28125 374.976562 4.851562 374.488281 4.445312 373.980469 C 4.039062 373.472656 3.65625 372.945312 3.300781 372.398438 C 2.941406 371.855469 2.613281 371.289062 2.3125 370.710938 C 2.007812 370.132812 1.734375 369.539062 1.492188 368.933594 C 1.246094 368.324219 1.027344 367.707031 0.84375 367.078125 C 0.65625 366.449219 0.5 365.8125 0.375 365.167969 C 0.25 364.523438 0.15625 363.875 0.09375 363.222656 C 0.03125 362.566406 0 361.910156 0 361.253906 L 0 7.753906 C 0 7.097656 0.03125 6.441406 0.09375 5.789062 C 0.15625 5.136719 0.25 4.484375 0.375 3.839844 C 0.5 3.199219 0.65625 2.5625 0.84375 1.933594 C 1.027344 1.304688 1.246094 0.683594 1.492188 0.078125 C 1.734375 -0.527344 2.007812 -1.121094 2.3125 -1.703125 C 2.613281 -2.28125 2.941406 -2.84375 3.300781 -3.390625 C 3.65625 -3.9375 4.039062 -4.464844 4.445312 -4.972656 C 4.851562 -5.480469 5.28125 -5.964844 5.734375 -6.429688 C 6.1875 -6.894531 6.660156 -7.335938 7.15625 -7.753906 C 7.652344 -8.167969 8.167969 -8.558594 8.699219 -8.925781 C 9.234375 -9.289062 9.785156 -9.628906 10.347656 -9.9375 C 10.914062 -10.246094 11.492188 -10.527344 12.085938 -10.777344 C 12.679688 -11.03125 13.28125 -11.25 13.894531 -11.441406 C 14.507812 -11.632812 15.128906 -11.792969 15.757812 -11.921875 C 16.386719 -12.046875 17.019531 -12.144531 17.660156 -12.210938 C 18.296875 -12.273438 18.9375 -12.304688 19.578125 -12.304688 Z M 19.578125 -12.304688 " fill-opacity="1" fill-rule="evenodd"/><path fill="#615df9" d="M 0 7.753906 L 0 74.167969 L 380.953125 74.167969 L 380.953125 7.753906 C 380.953125 -3.3125 372.203125 -12.304688 361.375 -12.304688 L 19.808594 -12.304688 C 8.984375 -12.304688 0 -3.3125 0 7.753906 Z M 0 7.753906 " fill-opacity="1" fill-rule="evenodd"/><path fill="#a8a8ff" d="M 289.054688 15.59375 L 289.285156 15.59375 C 290.878906 15.59375 292.464844 15.621094 294.050781 15.667969 C 295.632812 15.71875 297.207031 15.789062 298.765625 15.886719 C 300.328125 15.984375 301.871094 16.105469 303.394531 16.25 C 304.914062 16.394531 306.414062 16.5625 307.882812 16.753906 C 309.355469 16.945312 310.789062 17.15625 312.195312 17.394531 C 313.597656 17.628906 314.960938 17.882812 316.285156 18.160156 C 317.609375 18.4375 318.886719 18.734375 320.117188 19.050781 C 321.347656 19.367188 322.523438 19.699219 323.648438 20.054688 C 324.773438 20.40625 325.84375 20.773438 326.851562 21.160156 C 327.863281 21.546875 328.808594 21.945312 329.691406 22.359375 C 330.578125 22.773438 331.394531 23.199219 332.144531 23.640625 C 332.894531 24.082031 333.574219 24.53125 334.183594 24.992188 C 334.792969 25.453125 335.328125 25.921875 335.789062 26.398438 C 336.253906 26.875 336.640625 27.355469 336.949219 27.847656 C 337.261719 28.335938 337.492188 28.828125 337.648438 29.324219 C 337.804688 29.820312 337.882812 30.316406 337.882812 30.816406 C 337.882812 31.3125 337.804688 31.808594 337.648438 32.304688 C 337.492188 32.800781 337.261719 33.296875 336.949219 33.785156 C 336.640625 34.273438 336.253906 34.753906 335.789062 35.234375 C 335.328125 35.710938 334.792969 36.179688 334.183594 36.640625 C 333.574219 37.097656 332.894531 37.550781 332.144531 37.988281 C 331.394531 38.429688 330.578125 38.855469 329.691406 39.269531 C 328.808594 39.683594 327.863281 40.085938 326.851562 40.46875 C 325.84375 40.855469 324.773438 41.222656 323.648438 41.578125 C 322.523438 41.929688 321.347656 42.261719 320.117188 42.578125 C 318.886719 42.894531 317.609375 43.191406 316.285156 43.46875 C 314.960938 43.746094 313.597656 44 312.195312 44.238281 C 310.789062 44.472656 309.355469 44.683594 307.882812 44.875 C 306.414062 45.066406 304.914062 45.234375 303.394531 45.378906 C 301.871094 45.523438 300.328125 45.644531 298.765625 45.742188 C 297.207031 45.839844 295.632812 45.910156 294.050781 45.960938 C 292.464844 46.007812 290.878906 46.035156 289.285156 46.035156 L 289.054688 46.035156 C 287.464844 46.035156 285.875 46.007812 284.292969 45.960938 C 282.707031 45.910156 281.136719 45.839844 279.574219 45.742188 C 278.011719 45.644531 276.472656 45.523438 274.949219 45.378906 C 273.425781 45.234375 271.929688 45.066406 270.457031 44.875 C 268.988281 44.683594 267.550781 44.472656 266.144531 44.238281 C 264.742188 44 263.378906 43.746094 262.054688 43.46875 C 260.730469 43.191406 259.457031 42.894531 258.226562 42.578125 C 256.996094 42.261719 255.816406 41.929688 254.691406 41.578125 C 253.566406 41.222656 252.496094 40.855469 251.488281 40.46875 C 250.480469 40.085938 249.53125 39.683594 248.648438 39.269531 C 247.761719 38.855469 246.945312 38.429688 246.195312 37.988281 C 245.445312 37.550781 244.765625 37.097656 244.15625 36.640625 C 243.546875 36.179688 243.011719 35.710938 242.550781 35.234375 C 242.085938 34.753906 241.703125 34.273438 241.390625 33.785156 C 241.082031 33.296875 240.847656 32.800781 240.691406 32.304688 C 240.535156 31.808594 240.457031 31.3125 240.457031 30.816406 C 240.457031 30.316406 240.535156 29.820312 240.691406 29.324219 C 240.847656 28.828125 241.082031 28.335938 241.390625 27.847656 C 241.703125 27.355469 242.085938 26.875 242.550781 26.398438 C 243.011719 25.921875 243.546875 25.453125 244.15625 24.992188 C 244.765625 24.53125 245.445312 24.082031 246.195312 23.640625 C 246.945312 23.199219 247.761719 22.773438 248.648438 22.359375 C 249.53125 21.945312 250.480469 21.546875 251.488281 21.160156 C 252.496094 20.773438 253.566406 20.40625 254.691406 20.054688 C 255.816406 19.699219 256.996094 19.367188 258.226562 19.050781 C 259.457031 18.734375 260.730469 18.4375 262.054688 18.160156 C 263.378906 17.882812 264.742188 17.628906 266.144531 17.394531 C 267.550781 17.15625 268.988281 16.945312 270.457031 16.753906 C 271.929688 16.5625 273.425781 16.394531 274.949219 16.25 C 276.472656 16.105469 278.011719 15.984375 279.574219 15.886719 C 281.136719 15.789062 282.707031 15.71875 284.292969 15.667969 C 285.875 15.621094 287.464844 15.59375 289.054688 15.59375 Z M 289.054688 15.59375 " fill-opacity="1" fill-rule="evenodd"/><path fill="#3342ae" d="M 228.480469 74.167969 L 179.882812 -12.304688 L 19.808594 -12.304688 C 8.984375 -12.304688 0 -3.3125 0 7.753906 L 0 74.167969 Z M 228.480469 74.167969 " fill-opacity="1" fill-rule="evenodd"/><path fill="#f948b4" d="M 39.386719 15.59375 L 60.34375 15.59375 C 60.632812 15.59375 60.917969 15.625 61.199219 15.679688 C 61.480469 15.734375 61.753906 15.820312 62.019531 15.929688 C 62.285156 16.039062 62.535156 16.175781 62.777344 16.335938 C 63.015625 16.492188 63.234375 16.675781 63.4375 16.878906 C 63.640625 17.082031 63.824219 17.304688 63.984375 17.542969 C 64.144531 17.78125 64.277344 18.035156 64.386719 18.300781 C 64.496094 18.566406 64.582031 18.839844 64.636719 19.121094 C 64.691406 19.40625 64.722656 19.6875 64.722656 19.976562 L 64.722656 41.652344 C 64.722656 41.941406 64.691406 42.226562 64.636719 42.507812 C 64.582031 42.789062 64.496094 43.0625 64.386719 43.328125 C 64.277344 43.59375 64.144531 43.847656 63.984375 44.085938 C 63.824219 44.324219 63.640625 44.546875 63.4375 44.75 C 63.234375 44.953125 63.015625 45.136719 62.777344 45.296875 C 62.535156 45.457031 62.285156 45.589844 62.019531 45.699219 C 61.753906 45.808594 61.480469 45.894531 61.199219 45.949219 C 60.917969 46.007812 60.632812 46.035156 60.34375 46.035156 L 39.386719 46.035156 C 39.097656 46.035156 38.8125 46.007812 38.53125 45.949219 C 38.25 45.894531 37.976562 45.808594 37.710938 45.699219 C 37.445312 45.589844 37.191406 45.457031 36.953125 45.296875 C 36.714844 45.136719 36.492188 44.953125 36.289062 44.75 C 36.085938 44.546875 35.90625 44.324219 35.746094 44.085938 C 35.585938 43.847656 35.453125 43.59375 35.34375 43.328125 C 35.230469 43.0625 35.148438 42.789062 35.09375 42.507812 C 35.035156 42.226562 35.007812 41.941406 35.007812 41.652344 L 35.007812 19.976562 C 35.007812 19.6875 35.035156 19.40625 35.09375 19.121094 C 35.148438 18.839844 35.230469 18.566406 35.34375 18.300781 C 35.453125 18.035156 35.585938 17.78125 35.746094 17.542969 C 35.90625 17.304688 36.085938 17.082031 36.289062 16.878906 C 36.492188 16.675781 36.714844 16.492188 36.953125 16.335938 C 37.191406 16.175781 37.445312 16.039062 37.710938 15.929688 C 37.976562 15.820312 38.25 15.734375 38.53125 15.679688 C 38.8125 15.625 39.097656 15.59375 39.386719 15.59375 Z M 39.386719 15.59375 " fill-opacity="1" fill-rule="evenodd"/><path fill="#fecd0a" d="M 91.4375 15.59375 L 112.398438 15.59375 C 112.683594 15.59375 112.96875 15.625 113.25 15.679688 C 113.53125 15.734375 113.808594 15.820312 114.070312 15.929688 C 114.335938 16.039062 114.589844 16.175781 114.828125 16.335938 C 115.066406 16.492188 115.289062 16.675781 115.492188 16.878906 C 115.695312 17.082031 115.875 17.304688 116.035156 17.542969 C 116.195312 17.78125 116.332031 18.035156 116.441406 18.300781 C 116.550781 18.566406 116.632812 18.839844 116.691406 19.121094 C 116.746094 19.40625 116.773438 19.6875 116.773438 19.976562 L 116.773438 41.652344 C 116.773438 41.941406 116.746094 42.226562 116.691406 42.507812 C 116.632812 42.789062 116.550781 43.0625 116.441406 43.328125 C 116.332031 43.59375 116.195312 43.847656 116.035156 44.085938 C 115.875 44.324219 115.695312 44.546875 115.492188 44.75 C 115.289062 44.953125 115.066406 45.136719 114.828125 45.296875 C 114.589844 45.457031 114.335938 45.589844 114.070312 45.699219 C 113.808594 45.808594 113.53125 45.894531 113.25 45.949219 C 112.96875 46.007812 112.683594 46.035156 112.398438 46.035156 L 91.4375 46.035156 C 91.152344 46.035156 90.867188 46.007812 90.585938 45.949219 C 90.300781 45.894531 90.027344 45.808594 89.761719 45.699219 C 89.496094 45.589844 89.246094 45.457031 89.007812 45.296875 C 88.769531 45.136719 88.546875 44.953125 88.34375 44.75 C 88.140625 44.546875 87.960938 44.324219 87.800781 44.085938 C 87.640625 43.847656 87.503906 43.59375 87.394531 43.328125 C 87.285156 43.0625 87.203125 42.789062 87.144531 42.507812 C 87.089844 42.226562 87.0625 41.941406 87.0625 41.652344 L 87.0625 19.976562 C 87.0625 19.6875 87.089844 19.40625 87.144531 19.121094 C 87.203125 18.839844 87.285156 18.566406 87.394531 18.300781 C 87.503906 18.035156 87.640625 17.78125 87.800781 17.542969 C 87.960938 17.304688 88.140625 17.082031 88.34375 16.878906 C 88.546875 16.675781 88.769531 16.492188 89.007812 16.335938 C 89.246094 16.175781 89.496094 16.039062 89.761719 15.929688 C 90.027344 15.820312 90.300781 15.734375 90.585938 15.679688 C 90.867188 15.625 91.152344 15.59375 91.4375 15.59375 Z M 91.4375 15.59375 " fill-opacity="1" fill-rule="evenodd"/><path fill="#39df74" d="M 143.722656 15.59375 L 164.679688 15.59375 C 164.96875 15.59375 165.253906 15.625 165.535156 15.679688 C 165.816406 15.734375 166.089844 15.820312 166.355469 15.929688 C 166.621094 16.039062 166.875 16.175781 167.113281 16.335938 C 167.351562 16.492188 167.570312 16.675781 167.773438 16.878906 C 167.976562 17.082031 168.160156 17.304688 168.320312 17.542969 C 168.480469 17.78125 168.613281 18.035156 168.722656 18.300781 C 168.832031 18.566406 168.917969 18.839844 168.972656 19.121094 C 169.027344 19.40625 169.058594 19.6875 169.058594 19.976562 L 169.058594 41.652344 C 169.058594 41.941406 169.027344 42.226562 168.972656 42.507812 C 168.917969 42.789062 168.832031 43.0625 168.722656 43.328125 C 168.613281 43.59375 168.480469 43.847656 168.320312 44.085938 C 168.160156 44.324219 167.976562 44.546875 167.773438 44.75 C 167.570312 44.953125 167.351562 45.136719 167.113281 45.296875 C 166.875 45.457031 166.621094 45.589844 166.355469 45.699219 C 166.089844 45.808594 165.816406 45.894531 165.535156 45.949219 C 165.253906 46.007812 164.96875 46.035156 164.679688 46.035156 L 143.722656 46.035156 C 143.433594 46.035156 143.148438 46.007812 142.867188 45.949219 C 142.585938 45.894531 142.3125 45.808594 142.046875 45.699219 C 141.78125 45.589844 141.527344 45.457031 141.289062 45.296875 C 141.050781 45.136719 140.832031 44.953125 140.628906 44.75 C 140.425781 44.546875 140.242188 44.324219 140.082031 44.085938 C 139.921875 43.847656 139.789062 43.59375 139.679688 43.328125 C 139.570312 43.0625 139.484375 42.789062 139.429688 42.507812 C 139.375 42.226562 139.34375 41.941406 139.34375 41.652344 L 139.34375 19.976562 C 139.34375 19.6875 139.375 19.40625 139.429688 19.121094 C 139.484375 18.839844 139.570312 18.566406 139.679688 18.300781 C 139.789062 18.035156 139.921875 17.78125 140.082031 17.542969 C 140.242188 17.304688 140.425781 17.082031 140.628906 16.878906 C 140.832031 16.675781 141.050781 16.492188 141.289062 16.335938 C 141.527344 16.175781 141.78125 16.039062 142.046875 15.929688 C 142.3125 15.820312 142.585938 15.734375 142.867188 15.679688 C 143.148438 15.625 143.433594 15.59375 143.722656 15.59375 Z M 143.722656 15.59375 " fill-opacity="1" fill-rule="evenodd"/><path fill="#cfdefe" d="M 0 74.167969 L 380.996094 74.167969 L 380.996094 86.382812 L 0 86.382812 Z M 0 74.167969 " fill-opacity="1" fill-rule="evenodd"/><path fill="#ffdd40" d="M 171.128906 286.542969 L 202.914062 286.542969 L 202.914062 348.109375 L 171.128906 348.109375 Z M 171.128906 286.542969 " fill-opacity="1" fill-rule="evenodd"/><path fill="#4fabf7" d="M 217.425781 230.507812 L 249.210938 230.507812 L 249.210938 348.109375 L 217.425781 348.109375 Z M 217.425781 230.507812 " fill-opacity="1" fill-rule="evenodd"/><path fill="#e80054" d="M 263.488281 201.683594 L 295.273438 201.683594 L 295.273438 348.109375 L 263.488281 348.109375 Z M 263.488281 201.683594 " fill-opacity="1" fill-rule="evenodd"/><path fill="#ffb334" d="M 309.785156 244.113281 L 341.570312 244.113281 L 341.570312 348.109375 L 309.785156 348.109375 Z M 309.785156 244.113281 " fill-opacity="1" fill-rule="evenodd"/><path fill="#1c2e7a" d="M 216.734375 125.359375 C 214.660156 125.359375 213.046875 123.742188 213.046875 121.667969 C 213.046875 119.59375 214.660156 117.75 216.734375 117.75 L 330.28125 117.75 C 332.585938 117.75 334.199219 119.59375 334.199219 121.667969 C 334.199219 123.742188 332.585938 125.359375 330.28125 125.359375 Z M 216.734375 125.359375 " fill-opacity="1" fill-rule="nonzero"/><path fill="#1c2e7a" d="M 273.625 162.253906 C 271.550781 162.253906 269.707031 160.636719 269.707031 158.332031 C 269.707031 156.257812 271.550781 154.644531 273.625 154.644531 L 330.28125 154.644531 C 332.585938 154.644531 334.199219 156.257812 334.199219 158.332031 C 334.199219 160.636719 332.585938 162.253906 330.28125 162.253906 Z M 273.625 162.253906 " fill-opacity="1" fill-rule="nonzero"/><path fill="#1c2e7a" d="M 140.726562 284.238281 C 143.03125 284.238281 144.644531 286.082031 144.644531 288.15625 C 144.644531 290.230469 143.03125 292.078125 140.726562 292.078125 L 43.300781 292.078125 C 41.226562 292.078125 39.386719 290.230469 39.386719 288.15625 C 39.386719 286.082031 41.226562 284.238281 43.300781 284.238281 Z M 140.726562 284.238281 " fill-opacity="1" fill-rule="nonzero"/><path fill="#1c2e7a" d="M 92.128906 321.132812 C 94.203125 321.132812 95.8125 322.976562 95.8125 325.050781 C 95.8125 327.125 94.203125 328.742188 92.128906 328.742188 L 43.300781 328.742188 C 41.226562 328.742188 39.386719 327.125 39.386719 325.050781 C 39.386719 322.976562 41.226562 321.132812 43.300781 321.132812 Z M 92.128906 321.132812 " fill-opacity="1" fill-rule="nonzero"/><path fill="#e80054" d="M 57.121094 219.671875 C 43.300781 207.910156 34.546875 190.15625 34.546875 170.554688 C 34.546875 135.964844 61.265625 107.832031 95.125 105.757812 L 99.269531 170.554688 Z M 57.121094 219.671875 " fill-opacity="1" fill-rule="evenodd"/><path fill="#4fabf7" d="M 95.125 105.757812 L 99.269531 170.554688 L 163.988281 170.554688 C 163.988281 134.582031 134.96875 105.527344 99.269531 105.527344 C 97.886719 105.527344 96.503906 105.757812 95.125 105.757812 Z M 95.125 105.757812 " fill-opacity="1" fill-rule="evenodd"/><path fill="#ffdd40" d="M 99.269531 170.554688 L 57.121094 219.671875 C 68.40625 229.355469 83.148438 235.351562 99.269531 235.351562 C 134.96875 235.351562 163.988281 206.296875 163.988281 170.554688 Z M 99.269531 170.554688 " fill-opacity="1" fill-rule="evenodd"/></svg>